<?xml version="1.0" encoding="utf-8"?>
<!-- Generator: Adobe Illustrator 23.0.6, SVG Export Plug-In . SVG Version: 6.00 Build 0)  -->
<svg version="1.1" id="Layer_1" xmlns="http://www.w3.org/2000/svg" xmlns:xlink="http://www.w3.org/1999/xlink" x="0px" y="0px"
	 viewBox="0 0 262 120" style="enable-background:new 0 0 262 120;" xml:space="preserve">
<style type="text/css">
	.st0{fill:#55565B;}
	.st1{fill:#D41B68;}
	.st2{fill:#F47E47;}
	.st3{fill:#77BC43;}
</style>
<g>
	<g>
		<g>
			<path class="st0" d="M229.3,58.8c0.1-0.5,0.3-0.8,0.5-1.1c0.3-0.3,0.6-0.4,1.1-0.4c0.4,0,0.8,0.1,1.1,0.4
				c0.3,0.3,0.4,0.6,0.4,1.1H229.3z M230.9,55.9c-0.7,0-1.3,0.1-1.8,0.4c-0.5,0.3-0.9,0.7-1.2,1.2s-0.4,1.1-0.4,1.8s0.1,1.3,0.4,1.8
				c0.3,0.5,0.7,0.9,1.2,1.2s1.2,0.4,1.9,0.4c0.6,0,1.1-0.1,1.6-0.3s0.9-0.5,1.3-0.9l-1-1c-0.2,0.2-0.5,0.4-0.8,0.5
				s-0.6,0.2-0.9,0.2c-0.4,0-0.8-0.1-1.1-0.4c-0.3-0.2-0.5-0.6-0.6-1h4.9c0-0.1,0-0.3,0-0.5c0-1.1-0.3-2-0.9-2.6
				C232.8,56.2,232,55.9,230.9,55.9 M224.7,57.2V56h-1.9v6.8h1.9v-3.3c0-0.5,0.2-1,0.5-1.3s0.8-0.5,1.4-0.5c0.1,0,0.2,0,0.3,0v-1.8
				c-0.5,0-0.9,0.1-1.3,0.3C225.2,56.4,224.9,56.7,224.7,57.2 M216.6,58.8c0.1-0.5,0.3-0.8,0.5-1.1c0.3-0.3,0.6-0.4,1.1-0.4
				c0.4,0,0.8,0.1,1.1,0.4c0.3,0.3,0.4,0.6,0.4,1.1H216.6z M218.2,55.9c-0.7,0-1.3,0.1-1.8,0.4c-0.5,0.3-0.9,0.7-1.2,1.2
				s-0.4,1.1-0.4,1.8s0.1,1.3,0.4,1.8c0.3,0.5,0.7,0.9,1.2,1.2s1.2,0.4,1.9,0.4c0.6,0,1.2-0.1,1.6-0.3c0.5-0.2,0.9-0.5,1.3-0.9l-1-1
				c-0.2,0.2-0.5,0.4-0.8,0.5s-0.6,0.2-0.9,0.2c-0.4,0-0.8-0.1-1.1-0.4c-0.3-0.2-0.5-0.6-0.6-1h4.9c0-0.1,0-0.3,0-0.5
				c0-1.1-0.3-2-0.8-2.6C220.1,56.2,219.3,55.9,218.2,55.9 M211.1,55.9c-1.1,0-1.9,0.4-2.3,1.3v-3.8h-1.9v9.3h1.9v-3.3
				c0-0.5,0.1-0.9,0.4-1.2c0.3-0.3,0.7-0.5,1.1-0.5c0.4,0,0.7,0.1,1,0.4c0.2,0.2,0.4,0.6,0.4,1v3.7h1.9v-4.3c0-0.8-0.2-1.4-0.7-1.9
				C212.5,56.1,211.9,55.9,211.1,55.9"/>
			<path class="st0" d="M260.2,45.1l0.7-1.3c-0.4-0.2-0.8-0.4-1.3-0.6c-0.5-0.1-0.9-0.2-1.4-0.2c-0.8,0-1.4,0.2-1.9,0.6
				c-0.5,0.4-0.8,0.9-0.8,1.6c0,0.4,0.1,0.8,0.3,1.1c0.2,0.3,0.5,0.5,0.8,0.6s0.7,0.3,1.2,0.4c0.4,0.1,0.8,0.2,1,0.4
				c0.2,0.1,0.3,0.3,0.3,0.5s-0.1,0.3-0.2,0.4c-0.2,0.1-0.4,0.1-0.6,0.1c-0.4,0-0.8-0.1-1.2-0.2c-0.4-0.1-0.8-0.4-1.2-0.6l-0.6,1.3
				c0.4,0.3,0.8,0.5,1.3,0.7s1,0.2,1.6,0.2c0.8,0,1.5-0.2,2-0.6c0.5-0.4,0.8-0.9,0.8-1.6c0-0.4-0.1-0.8-0.3-1.1
				c-0.2-0.3-0.5-0.5-0.8-0.6s-0.7-0.3-1.2-0.4c-0.4-0.1-0.8-0.2-0.9-0.3c-0.2-0.1-0.3-0.2-0.3-0.4s0.1-0.3,0.2-0.4
				c0.1-0.1,0.3-0.1,0.6-0.1c0.3,0,0.6,0.1,1,0.2C259.5,44.7,259.8,44.9,260.2,45.1 M251.8,43c-1.1,0-1.9,0.4-2.3,1.3v-1.2h-1.9v6.8
				h1.9v-3.3c0-0.5,0.1-0.9,0.4-1.2c0.3-0.3,0.7-0.5,1.1-0.5c0.4,0,0.7,0.1,1,0.4c0.2,0.2,0.4,0.6,0.4,1V50h1.9v-4.3
				c0-0.8-0.2-1.4-0.7-1.9C253.1,43.3,252.5,43,251.8,43 M241.3,46c0.1-0.5,0.3-0.8,0.5-1.1c0.3-0.3,0.6-0.4,1.1-0.4
				c0.4,0,0.8,0.1,1.1,0.4c0.3,0.3,0.4,0.6,0.4,1.1H241.3z M242.9,43.1c-0.7,0-1.3,0.1-1.8,0.4c-0.5,0.3-0.9,0.7-1.2,1.2
				s-0.4,1.1-0.4,1.8s0.1,1.3,0.4,1.8c0.3,0.5,0.7,0.9,1.2,1.2s1.2,0.4,1.9,0.4c0.6,0,1.2-0.1,1.6-0.3c0.5-0.2,0.9-0.5,1.3-0.9l-1-1
				c-0.2,0.2-0.5,0.4-0.8,0.5s-0.6,0.2-0.9,0.2c-0.4,0-0.8-0.1-1.1-0.4c-0.3-0.2-0.5-0.6-0.6-1h4.9c0-0.1,0-0.3,0-0.5
				c0-1.1-0.3-2-0.8-2.6C244.8,43.4,244,43.1,242.9,43.1 M235.1,48.4c-0.5,0-0.9-0.2-1.2-0.5s-0.5-0.8-0.5-1.4c0-0.5,0.2-1,0.5-1.3
				s0.7-0.5,1.2-0.5s0.9,0.2,1.2,0.5s0.5,0.8,0.5,1.3c0,0.6-0.2,1-0.5,1.4C236,48.2,235.6,48.4,235.1,48.4 M235.5,43.1
				c-0.5,0-0.9,0.1-1.2,0.3c-0.4,0.2-0.7,0.4-0.9,0.8v-1h-1.9v9.2h1.9V49c0.3,0.3,0.6,0.6,0.9,0.8c0.4,0.2,0.8,0.3,1.3,0.3
				c0.6,0,1.2-0.1,1.7-0.4c0.5-0.3,0.8-0.7,1.1-1.2s0.4-1.1,0.4-1.8s-0.1-1.3-0.4-1.8c-0.3-0.5-0.6-0.9-1.1-1.2
				C236.7,43.2,236.1,43.1,235.5,43.1 M226.4,48.4c-0.5,0-0.9-0.2-1.2-0.5s-0.5-0.8-0.5-1.4c0-0.5,0.2-1,0.5-1.3s0.7-0.5,1.2-0.5
				s0.9,0.2,1.2,0.5s0.5,0.8,0.5,1.3c0,0.6-0.2,1-0.5,1.4C227.3,48.2,226.9,48.4,226.4,48.4 M226.9,43.1c-0.5,0-0.9,0.1-1.2,0.3
				c-0.4,0.2-0.7,0.4-0.9,0.8v-1h-1.9v9.2h1.9V49c0.3,0.3,0.6,0.6,0.9,0.8c0.4,0.2,0.8,0.3,1.3,0.3c0.6,0,1.2-0.1,1.7-0.4
				c0.5-0.3,0.8-0.7,1.1-1.2s0.4-1.1,0.4-1.8s-0.1-1.3-0.4-1.8c-0.3-0.5-0.6-0.9-1.1-1.2C228.1,43.2,227.5,43.1,226.9,43.1
				 M217.6,48.6c-0.3,0-0.6-0.1-0.8-0.2c-0.2-0.2-0.3-0.4-0.3-0.6c0-0.3,0.1-0.5,0.3-0.6s0.5-0.2,0.8-0.2h1.5v0.6
				c-0.1,0.3-0.2,0.5-0.5,0.7S218,48.6,217.6,48.6 M221.1,49.9v-4.4c0-0.8-0.3-1.4-0.8-1.8c-0.5-0.4-1.2-0.6-2.1-0.6
				c-0.6,0-1.1,0.1-1.5,0.2c-0.5,0.1-1,0.3-1.5,0.6l0.6,1.3c0.7-0.4,1.4-0.6,2-0.6c0.5,0,0.8,0.1,1.1,0.3c0.2,0.2,0.4,0.5,0.4,0.8
				v0.1h-1.9c-0.8,0-1.5,0.2-1.9,0.5c-0.4,0.4-0.7,0.9-0.7,1.5s0.2,1.1,0.6,1.5c0.4,0.4,1,0.6,1.7,0.6c0.5,0,0.9-0.1,1.2-0.2
				c0.4-0.2,0.7-0.4,0.9-0.7v0.8L221.1,49.9L221.1,49.9z M211.1,43c-1.1,0-1.9,0.4-2.3,1.3v-3.8h-1.9v9.3h1.9v-3.3
				c0-0.5,0.1-0.9,0.4-1.2c0.3-0.3,0.7-0.5,1.1-0.5c0.4,0,0.7,0.1,1,0.4c0.2,0.2,0.4,0.6,0.4,1v3.7h1.9v-4.3c0-0.8-0.2-1.4-0.7-1.9
				C212.5,43.3,211.9,43,211.1,43"/>
			<path class="st0" d="M223.3,35.3c-0.3,0.2-0.7,0.3-0.9,0.3c-0.4,0-0.6-0.3-0.6-0.8V32h1.8v-1.3h-1.8v-1.9h-1.9v1.9H219V32h0.9
				v3.1c0,0.7,0.2,1.2,0.6,1.5c0.4,0.4,0.9,0.5,1.5,0.5c0.3,0,0.6,0,0.9-0.1c0.3-0.1,0.6-0.2,0.8-0.3L223.3,35.3z M216.2,31.5v-1.2
				h-1.9v6.8h1.9v-3.3c0-0.5,0.2-1,0.5-1.3s0.8-0.5,1.4-0.5c0.1,0,0.2,0,0.3,0v-1.8c-0.5,0-0.9,0.1-1.3,0.3
				C216.7,30.8,216.4,31.1,216.2,31.5 M209.1,35.8c-0.3,0-0.6-0.1-0.8-0.2S208,35.2,208,35c0-0.3,0.1-0.5,0.3-0.6s0.5-0.2,0.8-0.2
				h1.5v0.6c-0.1,0.3-0.2,0.5-0.5,0.7S209.5,35.8,209.1,35.8 M212.6,37.1v-4.4c0-0.8-0.3-1.4-0.8-1.8s-1.2-0.6-2.1-0.6
				c-0.6,0-1.1,0.1-1.5,0.2c-0.5,0.1-1,0.3-1.5,0.6l0.6,1.3c0.7-0.4,1.4-0.6,2-0.6c0.5,0,0.8,0.1,1.1,0.3c0.2,0.2,0.4,0.5,0.4,0.8
				V33h-1.9c-0.8,0-1.5,0.2-1.9,0.5c-0.4,0.4-0.7,0.9-0.7,1.5s0.2,1.1,0.6,1.5c0.4,0.4,1,0.6,1.7,0.6c0.5,0,0.9-0.1,1.2-0.2
				c0.4-0.2,0.7-0.4,0.9-0.7V37h1.9V37.1z"/>
		</g>
		<path class="st1" d="M159.2,45.9c0,16.4-13.3,29.7-29.7,29.7S99.8,62.3,99.8,45.9s13.3-29.7,29.7-29.7
			C145.9,16.2,159.2,29.5,159.2,45.9 M174.4,90.7V43.1h-0.1C172.8,19.6,153.4,1,129.5,1c-24.8,0-44.9,20.1-44.9,44.9
			s20.1,44.9,44.9,44.9c11.4,0,21.8-4.3,29.7-11.3v11.3h15.2V90.7z"/>
		<path class="st2" d="M206.4,72.6c-5.5,2.7-13.8,6.8-15.1,8.2v0.1c7.7,6.1,17.4,9.8,28,9.8c19,0,35.2-11.8,41.7-28.4h-17
			c-5.3,8-14.4,13.2-24.7,13.2C214.7,75.5,210.3,74.5,206.4,72.6 M261,29.4C254.4,12.8,238.3,1,219.3,1c-24.8,0-44.9,20.1-44.9,44.9
			c0,14.2,6.6,26.8,16.8,35c0,0,0,0,0.1-0.1c0.7-1.9,3.2-11.2,4.7-16.6c-4-5.1-6.4-11.4-6.4-18.4c0-16.4,13.3-29.7,29.7-29.7
			c10.3,0,19.4,5.3,24.7,13.2L261,29.4L261,29.4z"/>
		<path class="st3" d="M87.6,29.4C81,12.8,64.8,1,45.9,1C21.1,1,1,21.1,1,45.9s20.1,44.9,44.9,44.9c19,0,35.2-11.8,41.7-28.4h-17
			c-5.3,8-14.4,13.2-24.7,13.2c-16.4,0-29.7-13.3-29.7-29.7s13.3-29.7,29.7-29.7c10.3,0,19.4,5.3,24.7,13.2
			C70.6,29.4,87.6,29.4,87.6,29.4z"/>
	</g>
	<path class="st0" d="M256.5,108.4v-2.3h-3.6v12.7h3.6v-6.1c0-1,0.3-1.8,1-2.4c0.6-0.6,1.5-0.9,2.6-0.9c0.3,0,0.4,0,0.6,0V106
		c-0.9,0-1.8,0.2-2.5,0.6C257.5,107,256.9,107.6,256.5,108.4 M241.3,111.4c0.1-0.8,0.5-1.5,1-2s1.2-0.7,2-0.7s1.5,0.3,2,0.8
		s0.8,1.2,0.8,2h-5.8V111.4z M244.2,106c-1.3,0-2.4,0.3-3.4,0.8s-1.8,1.3-2.3,2.3s-0.8,2.1-0.8,3.4s0.3,2.4,0.8,3.4s1.3,1.7,2.3,2.3
		c1,0.5,2.2,0.8,3.5,0.8c1.1,0,2.2-0.2,3.1-0.6c0.9-0.4,1.7-0.9,2.3-1.7l-1.9-1.9c-0.4,0.4-0.9,0.8-1.5,1c-0.5,0.2-1.1,0.3-1.7,0.3
		c-0.8,0-1.5-0.2-2.1-0.7c-0.6-0.4-1-1.1-1.2-1.9h9.1c0-0.2,0-0.5,0-0.9c0-2.1-0.5-3.7-1.6-4.9C247.8,106.5,246.3,106,244.2,106
		 M235.9,115.4c-0.6,0.3-1.2,0.5-1.8,0.5c-0.8,0-1.2-0.5-1.2-1.5v-5.2h3.4v-2.5H233v-3.5h-3.6v3.5h-1.8v2.5h1.8v5.9
		c0,1.3,0.4,2.2,1.1,2.9c0.7,0.7,1.7,1,2.9,1c0.6,0,1.2-0.1,1.7-0.2c0.6-0.1,1.1-0.4,1.6-0.6L235.9,115.4z M221.7,105.9
		c-2,0-3.5,0.8-4.4,2.4v-2.2h-3.6v12.7h3.6v-6.2c0-0.9,0.3-1.7,0.8-2.3c0.5-0.6,1.2-0.9,2.1-0.9c0.8,0,1.4,0.2,1.8,0.7
		c0.4,0.5,0.7,1.1,0.7,1.9v6.9h3.6v-8c0-1.5-0.4-2.7-1.3-3.5C224.2,106.4,223.1,105.9,221.7,105.9 M202.1,111.4c0.1-0.8,0.5-1.5,1-2
		s1.2-0.7,2-0.7s1.5,0.3,2,0.8s0.8,1.2,0.8,2h-5.8V111.4z M205,106c-1.3,0-2.4,0.3-3.4,0.8s-1.8,1.3-2.3,2.3c-0.6,1-0.8,2.1-0.8,3.4
		s0.3,2.4,0.8,3.4s1.3,1.7,2.3,2.3c1,0.5,2.2,0.8,3.5,0.8c1.1,0,2.2-0.2,3.1-0.6c0.9-0.4,1.7-0.9,2.3-1.7l-1.9-1.9
		c-0.4,0.4-0.9,0.8-1.5,1c-0.5,0.2-1.1,0.3-1.7,0.3c-0.8,0-1.5-0.2-2.1-0.7c-0.6-0.4-1-1.1-1.2-1.9h9.1c0-0.2,0-0.5,0-0.9
		c0-2.1-0.5-3.7-1.6-4.9C208.6,106.5,207.1,106,205,106 M195.6,107.4l2.2-2.7c-0.8-0.8-1.8-1.5-3-2s-2.3-0.7-3.5-0.7
		c-1.6,0-3.1,0.4-4.5,1.1c-1.3,0.7-2.4,1.8-3.2,3c-0.8,1.3-1.2,2.7-1.2,4.3c0,1.6,0.4,3.1,1.1,4.4c0.8,1.3,1.8,2.3,3.1,3.1
		c1.3,0.7,2.8,1.1,4.4,1.1c1.2,0,2.4-0.3,3.6-0.8c1.2-0.5,2.2-1.3,3.1-2.2l-2.2-2.4c-0.6,0.6-1.3,1.1-2,1.4
		c-0.8,0.4-1.5,0.5-2.3,0.5c-0.9,0-1.8-0.2-2.5-0.7c-0.8-0.5-1.4-1.1-1.8-1.9c-0.4-0.8-0.7-1.7-0.7-2.6c0-1,0.2-1.8,0.7-2.6
		c0.4-0.8,1-1.4,1.8-1.9s1.6-0.7,2.5-0.7c0.8,0,1.5,0.2,2.3,0.6C194.4,106.2,195,106.7,195.6,107.4 M175.4,115.4
		c-0.6,0.3-1.2,0.5-1.8,0.5c-0.8,0-1.2-0.5-1.2-1.5v-5.2h3.4v-2.5h-3.4v-3.5h-3.6v3.5H167v2.5h1.8v5.9c0,1.3,0.4,2.2,1.1,2.9
		c0.7,0.7,1.7,1,2.9,1c0.6,0,1.2-0.1,1.7-0.2c0.6-0.1,1.1-0.4,1.6-0.6L175.4,115.4z M161.6,108.4v-2.3H158v12.7h3.6v-6.1
		c0-1,0.3-1.8,1-2.4s1.5-0.9,2.6-0.9c0.3,0,0.4,0,0.6,0V106c-0.9,0-1.8,0.2-2.5,0.6C162.6,107,162,107.6,161.6,108.4 M147.2,106.1
		l2.6,6.4h-5.2L147.2,106.1z M156.3,118.7l-7-16.5h-3.8l-7.2,16.5h3.8l1.3-3.2h7.6l1.3,3.2H156.3z M130.8,109.8l1.2-2.5
		c-0.7-0.5-1.5-0.8-2.4-1s-1.7-0.4-2.6-0.4c-1.4,0-2.6,0.3-3.6,1c-0.9,0.7-1.4,1.7-1.4,2.9c0,0.8,0.2,1.5,0.6,2s0.9,0.9,1.5,1.1
		c0.6,0.3,1.3,0.5,2.2,0.8c0.8,0.2,1.4,0.5,1.8,0.7c0.4,0.2,0.6,0.5,0.6,0.8s-0.1,0.6-0.4,0.7c-0.3,0.2-0.7,0.2-1.2,0.2
		c-0.7,0-1.5-0.1-2.2-0.4c-0.8-0.3-1.5-0.7-2.2-1.2l-1.2,2.4c0.7,0.6,1.5,1,2.5,1.3s2,0.5,3,0.5c1.5,0,2.7-0.4,3.7-1
		c1-0.7,1.4-1.7,1.4-2.9c0-0.8-0.2-1.5-0.6-2c-0.4-0.5-0.9-0.9-1.5-1.2c-0.6-0.3-1.3-0.5-2.2-0.8c-0.8-0.2-1.4-0.4-1.8-0.6
		s-0.5-0.5-0.5-0.8s0.1-0.5,0.4-0.7s0.6-0.2,1.1-0.2s1.1,0.1,1.8,0.3C129.4,109.1,130.1,109.4,130.8,109.8 M112.4,116
		c-0.9,0-1.7-0.3-2.3-1c-0.6-0.7-0.9-1.5-0.9-2.5s0.3-1.9,0.9-2.5c0.6-0.7,1.4-1,2.3-1s1.7,0.3,2.3,1c0.6,0.6,0.9,1.5,0.9,2.5
		s-0.3,1.9-0.9,2.5C114.1,115.6,113.3,116,112.4,116 M115.6,101.3v6.7c-0.9-1.3-2.3-2-4.1-2c-1.2,0-2.2,0.3-3.1,0.8
		s-1.6,1.3-2.1,2.3s-0.7,2.1-0.7,3.4s0.2,2.4,0.7,3.4s1.2,1.8,2.1,2.3s2,0.8,3.1,0.8c0.9,0,1.6-0.2,2.3-0.5c0.7-0.3,1.2-0.8,1.7-1.5
		v1.9h3.6v-17.5L115.6,101.3L115.6,101.3z M97,116.3c-0.6,0-1.1-0.1-1.4-0.4c-0.4-0.3-0.5-0.7-0.5-1.2s0.2-0.9,0.5-1.1
		s0.9-0.3,1.6-0.3h2.9v1.1c-0.1,0.5-0.4,1-1,1.4C98.4,116.1,97.8,116.3,97,116.3 M103.5,118.7v-8.3c0-1.4-0.5-2.5-1.4-3.3
		s-2.2-1.2-3.9-1.2c-1.1,0-2,0.1-2.9,0.4c-0.9,0.2-1.8,0.6-2.8,1.1l1.1,2.5c1.3-0.7,2.6-1.1,3.8-1.1c0.9,0,1.5,0.2,2,0.6
		c0.4,0.4,0.7,0.9,0.7,1.6v0.2h-3.5c-1.5,0-2.7,0.4-3.6,1c-0.8,0.7-1.3,1.6-1.3,2.8c0,1.2,0.4,2.1,1.2,2.9c0.8,0.7,1.8,1.1,3.2,1.1
		c0.9,0,1.7-0.1,2.3-0.4c0.7-0.3,1.2-0.7,1.6-1.2v1.5h3.5V118.7z M83.5,109c0.9,0,1.7,0.3,2.3,1c0.6,0.6,0.9,1.5,0.9,2.5
		s-0.3,1.9-0.9,2.5s-1.3,1-2.3,1c-0.9,0-1.7-0.3-2.3-1c-0.6-0.6-0.9-1.5-0.9-2.5s0.3-1.9,0.9-2.5C81.8,109.3,82.5,109,83.5,109
		 M83.5,106c-1.4,0-2.5,0.3-3.6,0.8c-1,0.5-1.8,1.3-2.4,2.3s-0.8,2.1-0.8,3.4s0.3,2.4,0.8,3.4c0.6,1,1.4,1.7,2.4,2.3
		c1,0.5,2.2,0.8,3.6,0.8c1.3,0,2.5-0.3,3.5-0.8s1.8-1.3,2.4-2.3s0.8-2.1,0.8-3.4s-0.3-2.4-0.8-3.4c-0.6-1-1.4-1.7-2.4-2.3
		S84.8,106,83.5,106 M71.6,108.4v-2.3H68v12.7h3.6v-6.1c0-1,0.3-1.8,1-2.4s1.5-0.9,2.6-0.9c0.3,0,0.4,0,0.6,0V106
		c-0.9,0-1.8,0.2-2.5,0.6C72.6,107,72,107.6,71.6,108.4 M64.2,109.8l1.2-2.5c-0.7-0.5-1.5-0.8-2.4-1s-1.7-0.4-2.6-0.4
		c-1.4,0-2.6,0.3-3.6,1c-0.9,0.7-1.4,1.7-1.4,2.9c0,0.8,0.2,1.5,0.6,2c0.4,0.5,0.9,0.9,1.5,1.1c0.6,0.3,1.3,0.5,2.2,0.8
		c0.8,0.2,1.4,0.5,1.8,0.7c0.4,0.2,0.6,0.5,0.6,0.8s-0.1,0.6-0.4,0.7c-0.3,0.2-0.7,0.2-1.2,0.2c-0.7,0-1.5-0.1-2.2-0.4
		c-0.8-0.3-1.5-0.7-2.2-1.2l-1.2,2.4c0.7,0.6,1.5,1,2.5,1.3s2,0.5,3,0.5c1.5,0,2.7-0.4,3.7-1c1-0.7,1.4-1.7,1.4-2.9
		c0-0.8-0.2-1.5-0.6-2s-0.9-0.9-1.5-1.2c-0.6-0.3-1.3-0.5-2.2-0.8c-0.8-0.2-1.4-0.4-1.8-0.6c-0.4-0.2-0.5-0.5-0.5-0.8
		s0.1-0.5,0.4-0.7c0.3-0.2,0.6-0.2,1.1-0.2s1.1,0.1,1.8,0.3C62.8,109.1,63.5,109.4,64.2,109.8 M52.4,109.8l1.2-2.5
		c-0.7-0.5-1.5-0.8-2.4-1s-1.7-0.4-2.6-0.4c-1.4,0-2.6,0.3-3.6,1c-0.9,0.7-1.4,1.7-1.4,2.9c0,0.8,0.2,1.5,0.6,2
		c0.4,0.5,0.9,0.9,1.5,1.1c0.6,0.3,1.3,0.5,2.2,0.8c0.8,0.2,1.4,0.5,1.8,0.7c0.4,0.2,0.6,0.5,0.6,0.8s-0.1,0.6-0.4,0.7
		c-0.3,0.2-0.7,0.2-1.2,0.2c-0.7,0-1.5-0.1-2.2-0.4c-0.8-0.3-1.5-0.7-2.2-1.2l-1.2,2.4c0.7,0.6,1.5,1,2.5,1.3s2,0.5,3,0.5
		c1.5,0,2.7-0.4,3.7-1c1-0.7,1.4-1.7,1.4-2.9c0-0.8-0.2-1.5-0.6-2c-0.4-0.5-0.9-0.9-1.5-1.2c-0.6-0.3-1.3-0.5-2.2-0.8
		c-0.8-0.2-1.4-0.4-1.8-0.6c-0.4-0.2-0.5-0.5-0.5-0.8s0.1-0.5,0.4-0.7c0.3-0.2,0.6-0.2,1.1-0.2s1.1,0.1,1.8,0.3
		C51.1,109.1,51.7,109.4,52.4,109.8 M35.3,109c0.9,0,1.7,0.3,2.3,1c0.6,0.6,0.9,1.5,0.9,2.5s-0.3,1.9-0.9,2.5c-0.6,0.6-1.3,1-2.3,1
		c-0.9,0-1.7-0.3-2.3-1c-0.6-0.6-0.9-1.5-0.9-2.5s0.3-1.9,0.9-2.5C33.6,109.3,34.3,109,35.3,109 M35.3,106c-1.3,0-2.5,0.3-3.6,0.8
		c-1,0.5-1.8,1.3-2.4,2.3s-0.8,2.1-0.8,3.4s0.3,2.4,0.8,3.4c0.6,1,1.4,1.7,2.4,2.3c1,0.6,2.2,0.8,3.6,0.8c1.3,0,2.5-0.3,3.5-0.8
		s1.8-1.3,2.4-2.3c0.6-1,0.8-2.1,0.8-3.4s-0.3-2.4-0.8-3.4c-0.6-1-1.4-1.7-2.4-2.3S36.6,106,35.3,106 M23.4,108.4v-2.3h-3.6v12.7
		h3.6v-6.1c0-1,0.3-1.8,1-2.4s1.5-0.9,2.6-0.9c0.3,0,0.4,0,0.6,0V106c-0.9,0-1.8,0.2-2.5,0.6C24.4,107,23.8,107.6,23.4,108.4
		 M15.4,107.4l2.2-2.7c-0.8-0.8-1.8-1.5-3-2s-2.3-0.7-3.5-0.7c-1.6,0-3.1,0.4-4.5,1.1c-1.3,0.7-2.4,1.8-3.2,3
		c-0.8,1.3-1.2,2.7-1.2,4.3c0,1.6,0.4,3.1,1.1,4.4c0.8,1.3,1.8,2.3,3.1,3.1c1.3,0.7,2.8,1.1,4.4,1.1c1.2,0,2.4-0.3,3.6-0.8
		s2.2-1.3,3.1-2.2l-2.2-2.4c-0.6,0.6-1.3,1.1-2,1.4c-0.8,0.4-1.5,0.5-2.2,0.5c-0.9,0-1.8-0.2-2.5-0.7c-0.8-0.5-1.4-1.1-1.8-1.9
		s-0.7-1.7-0.7-2.6c0-1,0.2-1.8,0.7-2.6c0.4-0.8,1-1.4,1.8-1.9s1.6-0.7,2.5-0.7c0.8,0,1.5,0.2,2.3,0.6
		C14.2,106.2,14.8,106.7,15.4,107.4"/>
</g>
</svg>
